<svg xmlns="http://www.w3.org/2000/svg" viewBox="0 0 1500 993.1" style="enable-background:new 0 0 1500 993.1" xml:space="preserve"><path d="M107.3 993.1c-.6-.1-2.8-.3-4.8-.5-18.3-1.8-37.8-9.3-53.2-20.4-23-16.6-39.2-40.7-46-68.4-3.6-14.7-4.3-31.2-2-46.4 6.2-40.7 33.1-75.6 70.4-91.2 9.3-3.9 18.6-6.4 29.4-7.9 6-.8 20.7-.8 26.8 0 12.9 1.7 23.9 5 35.1 10.4 12.4 6 20.9 12.2 31.3 22.5 9.1 9.1 14.7 16.6 21.1 28.6l1.4 2.5-4.9 3.6c-6.7 5-22.5 16.3-27.7 19.8l-4.3 2.9-1.7-3.8c-2.2-4.7-3.7-7.5-6.2-11.2-10-14.9-25.8-25.5-43.2-28.9-9.2-1.8-20.4-1.6-29.5.5-9.5 2.2-19.8 7.2-27.7 13.3-3.2 2.5-9 8.3-11.6 11.5-13.9 17.4-19 39.5-14.2 61.6 1.6 7.7 5.9 17.6 10.3 24.3 11.8 17.6 29.8 28.8 50.2 31.4 3.6.4 12.3.4 15.9 0 18.1-2.2 34.8-11.6 46.2-26 3.4-4.2 5.7-7.9 8.4-13.1 1.2-2.3 2.2-4.1 2.3-4.1s8.4 5.9 18.5 13.1l18.3 13.1-1.9 3.5c-3.8 7.3-10.5 16.4-16.6 23-10.5 11.2-20.7 18.8-34 25.3-11.5 5.6-23.7 9.2-36.6 10.8-2.5 0-17.4.4-19.5.2zm156.3-118.9V759.8H308v82.1h115.9v-82.1h44.4v228.9h-44.4V887.9H308v100.7h-44.4V874.2zm249.5 94.1c4.9-11.2 27.8-62.7 50.7-114.4l41.7-94.1h62.2l50.4 113c27.7 62.2 50.7 113.7 51.1 114.4l.6 1.4h-53.1l-10.3-22.7-10.3-22.7-59.4.1-59.4.1-9.9 22.6-10.1 22.6h-53.1l8.9-20.3zm164.5-71.2c-.2-.8-40.5-90.9-40.7-90.9-.1 0-38.4 89.4-39 91.1-.1.2 15.2.3 39.9.3 33.9-.1 39.9-.1 39.8-.5zm128.2-22.9V759.8h62.4l48.9 68.6L966 897l.1-68.6.1-68.6h44.7v228.9l-17.9-.1-17.9-.1-62-86c-34.1-47.3-62.1-86-62.2-86-.1 0-.2 38.7-.2 86.1v86.1H806V874.2zm285.8 0V759.8h160v46h-115.3v45.7H1243v46h-106.6v45.7h131.8v45.4h-176.5V874.2zm239.2 0V759.8h44.7v183.5H1500v45.4h-169.2V874.2zM564.5 701.5c-47.8-2.2-101-16.7-143.9-39.2-32.9-17.3-59-36.6-86.4-64-21.4-21.4-37.2-41.2-50.6-63.2l-5.9-9.7 8.3-4.4c16.2-8.6 89.9-46.4 90.5-46.4.3 0 3.4 4.1 6.8 9.2 38.4 57.3 98.6 94.6 168.9 104.7 12.3 1.8 49.3 1.5 62.7-.5 14.9-2.2 32.8-6.3 44.1-10 .7-.2-.7-2.5-3.9-6.4-25.2-29.7-48.1-70.3-61-108.2-23.3-68.5-25-142.1-4.8-211.2 12.6-42.9 34.2-84.6 61.6-118.6 4.1-5.1 7.4-9.5 7.4-9.9 0-1.4-21.4-7-35.4-9.4-21.6-3.7-55.5-4.1-75.1-1-32.9 5.2-66.3 17.6-92.4 34.1-29.1 18.4-53.3 42.1-72.7 70.9l-8.5 12.7-10.9-5.7c-6-3.1-28.2-14.7-49.4-25.6s-38.6-19.9-38.7-20c-.3-.3 12.9-21.4 18.4-29.2 16.6-23.8 46-55.4 67.7-72.6C418.5 32.7 481.7 7.3 552.9.9c13.2-1.2 45.9-1.2 58.7 0 45.2 4.1 83.9 15.1 123.9 35l19.1 9.5 6.4-3.6c10.3-5.9 28.7-14.4 42.7-19.7C842.8 7.1 882.3 0 925.8 0c30.4 0 55.8 3 83.4 9.8 62.3 15.4 115.3 44.9 161.1 89.6 24.8 24.2 44.2 48.9 59.9 76.2l2.4 4.1-38.7 20c-21.3 11-43.6 22.5-49.5 25.6l-10.8 5.7-8.1-12.3c-40.2-60.7-106-100.1-178-106.9-21.3-2-53-.2-72.2 4.2-9.9 2.2-26 6.8-26 7.4 0 .3 2.6 3.8 5.8 7.7 41.3 50.6 67 112.3 75.3 180.5 2 16.3 2.3 57.8.5 73.9-7.5 68-33.2 130.7-74.3 181.3-9.3 11.5-8.9 10.7-5.9 11.8 1.4.5 8 2.4 14.7 4.1 33.8 8.6 70.2 9.8 104.3 3.5 62.1-11.5 118.1-48.2 154.1-101.2 3.3-4.9 6.4-9.3 6.7-9.7.3-.4 8.6 3.3 18.4 8.2 19.4 9.7 80.2 41.2 80.8 41.8 1.1 1.1-18.3 29.8-30.2 44.8-11.2 14.1-40.7 43.6-54.8 54.7-50.9 40.3-108 65-170.9 73.8-72.2 10.1-148.7-3.4-210.9-37.3l-8.8-4.8-10.9 5.8c-53.9 28.5-115.9 42.1-178.7 39.2zm201.8-198.6c30.1-37.3 48.9-82.5 53.5-128.9 1.6-15.6.6-47.2-1.8-61.4-6.7-39-20.9-72.4-43.9-102.9-4.3-5.7-10.6-13.4-14-17.1L754 186l-5.7 6.2c-7.5 8.1-20 24.8-26.3 35-32 51.8-42.5 115.4-28.9 176 8.5 38.1 28.2 76.5 54.6 106.8l6.1 7 2.7-2.5c1.4-1.5 5.8-6.7 9.8-11.6z"/></svg>